<?xml version="1.0" standalone="no"?>
<!DOCTYPE svg PUBLIC "-//W3C//DTD SVG 20010904//EN"
 "http://www.w3.org/TR/2001/REC-SVG-20010904/DTD/svg10.dtd">
<svg version="1.0" xmlns="http://www.w3.org/2000/svg"
 width="512.000000pt" height="512.000000pt" viewBox="0 0 512.000000 512.000000"
 preserveAspectRatio="xMidYMid meet">

<g transform="translate(0.000000,512.000000) scale(0.100000,-0.100000)"
fill="#000000" stroke="none">
<path d="M1164 4333 c-12 -2 -30 -13 -40 -25 -18 -19 -19 -79 -19 -1749 l0
-1728 23 -23 23 -23 1409 0 1409 0 23 23 23 23 0 1729 0 1729 -23 23 -23 23
-1392 1 c-765 1 -1402 -1 -1413 -3z m2696 -1773 l0 -1620 -955 0 -955 0 0
1620 0 1620 955 0 955 0 0 -1620z"/>
<path d="M2718 3553 l-3 -168 -167 -3 -168 -2 0 -185 0 -185 168 -2 167 -3 3
-167 2 -168 185 0 185 0 0 170 0 170 170 0 170 0 0 185 0 185 -167 2 -168 3
-3 168 -2 167 -185 0 -185 0 -2 -167z"/>
<path d="M2310 1980 l0 -80 595 0 595 0 0 80 0 80 -595 0 -595 0 0 -80z"/>
<path d="M2310 1390 l0 -80 595 0 595 0 0 80 0 80 -595 0 -595 0 0 -80z"/>
</g>
</svg>
